<?xml version="1.0" encoding="UTF-8" standalone="no"?>
<svg width="24px" height="30px" viewBox="0 0 24 30" version="1.1" xmlns="http://www.w3.org/2000/svg" xmlns:xlink="http://www.w3.org/1999/xlink">
    <!-- Generator: Sketch 42 (36781) - http://www.bohemiancoding.com/sketch -->
    <title>list</title>
    <desc>Created with Sketch.</desc>
    <defs></defs>
    <g id="Component" stroke="none" stroke-width="1" fill="none" fill-rule="evenodd">
        <g id="onboarding-step" transform="translate(-876.000000, -15.000000)" fill-rule="nonzero" fill="#000000">
            <g id="step" transform="translate(102.000000, 15.000000)">
                <g id="5" transform="translate(774.000000, 0.000000)">
                    <g id="list">
                        <g id="Capa_1">
                            <g id="Group">
                                <path d="M16.457,0 L0.25,0 L0.25,30 L23.75,30 L23.75,7.293 L16.457,0 Z M16.75,1.707 L22.043,7 L16.75,7 L16.75,1.707 Z M1.25,29 L1.25,1 L15.75,1 L15.75,8 L22.75,8 L22.75,29 L1.25,29 Z" id="Shape"></path>
                                <path d="M18.25,10.5 L10.25,10.5 C9.974,10.5 9.75,10.7235 9.75,11 C9.75,11.2765 9.974,11.5 10.25,11.5 L18.25,11.5 C18.526,11.5 18.75,11.2765 18.75,11 C18.75,10.7235 18.526,10.5 18.25,10.5 Z" id="Shape"></path>
                                <path d="M8.4375,9.1095 L6.287,10.83 L5.6035,10.1465 C5.408,9.951 5.092,9.951 4.8965,10.1465 C4.701,10.342 4.701,10.658 4.8965,10.8535 L5.8965,11.8535 C5.9935,11.9505 6.1215,12 6.25,12 C6.36,12 6.4705,11.964 6.562,11.8905 L9.062,9.8905 C9.278,9.7175 9.3125,9.403 9.14,9.1875 C8.968,8.9715 8.653,8.937 8.4375,9.1095 Z" id="Shape"></path>
                                <path d="M18.25,16 L10.25,16 C9.974,16 9.75,16.2235 9.75,16.5 C9.75,16.7765 9.974,17 10.25,17 L18.25,17 C18.526,17 18.75,16.7765 18.75,16.5 C18.75,16.2235 18.526,16 18.25,16 Z" id="Shape"></path>
                                <path d="M8.4375,14.6095 L6.287,16.33 L5.6035,15.6465 C5.408,15.451 5.092,15.451 4.8965,15.6465 C4.701,15.842 4.701,16.158 4.8965,16.3535 L5.8965,17.3535 C5.9935,17.4505 6.1215,17.5 6.25,17.5 C6.36,17.5 6.4705,17.464 6.562,17.3905 L9.062,15.3905 C9.278,15.2175 9.3125,14.903 9.14,14.6875 C8.968,14.4715 8.653,14.437 8.4375,14.6095 Z" id="Shape"></path>
                                <path d="M18.25,21.5 L10.25,21.5 C9.974,21.5 9.75,21.7235 9.75,22 C9.75,22.2765 9.974,22.5 10.25,22.5 L18.25,22.5 C18.526,22.5 18.75,22.2765 18.75,22 C18.75,21.7235 18.526,21.5 18.25,21.5 Z" id="Shape"></path>
                                <path d="M8.4375,20.1095 L6.287,21.83 L5.6035,21.1465 C5.408,20.951 5.092,20.951 4.8965,21.1465 C4.701,21.342 4.701,21.658 4.8965,21.8535 L5.8965,22.8535 C5.9935,22.9505 6.1215,23 6.25,23 C6.36,23 6.4705,22.964 6.562,22.8905 L9.062,20.8905 C9.278,20.7175 9.3125,20.403 9.14,20.1875 C8.968,19.9715 8.653,19.937 8.4375,20.1095 Z" id="Shape"></path>
                            </g>
                        </g>
                    </g>
                </g>
            </g>
        </g>
    </g>
</svg>