<?xml version="1.0" encoding="UTF-8" standalone="no"?>
<svg width="30px" height="30px" viewBox="0 0 30 30" version="1.1" xmlns="http://www.w3.org/2000/svg" xmlns:xlink="http://www.w3.org/1999/xlink">
    <!-- Generator: Sketch 42 (36781) - http://www.bohemiancoding.com/sketch -->
    <title>Capa_1</title>
    <desc>Created with Sketch.</desc>
    <defs></defs>
    <g id="Component" stroke="none" stroke-width="1" fill="none" fill-rule="evenodd">
        <g id="onboarding-step" transform="translate(-472.000000, -15.000000)" fill-rule="nonzero" fill="#000000">
            <g id="step" transform="translate(102.000000, 15.000000)">
                <g id="3" transform="translate(370.000000, 0.000000)">
                    <g id="server">
                        <g id="Capa_1">
                            <g id="Group">
                                <path d="M5.25,3.25 C4.0095,3.25 3,4.2595 3,5.5 C3,6.7405 4.0095,7.75 5.25,7.75 C6.4905,7.75 7.5,6.7405 7.5,5.5 C7.5,4.2595 6.4905,3.25 5.25,3.25 Z M5.25,6.75 C4.561,6.75 4,6.1895 4,5.5 C4,4.8105 4.561,4.25 5.25,4.25 C5.939,4.25 6.5,4.8105 6.5,5.5 C6.5,6.1895 5.939,6.75 5.25,6.75 Z" id="Shape"></path>
                                <circle id="Oval" cx="25" cy="4.75" r="0.5"></circle>
                                <circle id="Oval" cx="23" cy="4.75" r="0.5"></circle>
                                <ellipse id="Oval" cx="26" cy="6.25" rx="0.5" ry="0.5"></ellipse>
                                <circle id="Oval" cx="24" cy="6.25" r="0.5"></circle>
                                <circle id="Oval" cx="21" cy="4.75" r="0.5"></circle>
                                <circle id="Oval" cx="22" cy="6.25" r="0.5"></circle>
                                <circle id="Oval" cx="19" cy="4.75" r="0.5"></circle>
                                <circle id="Oval" cx="20" cy="6.25" r="0.5"></circle>
                                <circle id="Oval" cx="17" cy="4.75" r="0.5"></circle>
                                <circle id="Oval" cx="18" cy="6.25" r="0.5"></circle>
                                <path d="M30,8.446 L30,2.554 C30,1.2835 28.9665,0.25 27.696,0.25 L2.304,0.25 C1.0335,0.25 0,1.2835 0,2.554 L0,8.4455 C0,9.18 0.3515,9.8275 0.8885,10.2495 C0.3515,10.672 0,11.32 0,12.054 L0,17.9455 C0,18.68 0.3515,19.3275 0.8885,19.7495 C0.3515,20.172 0,20.82 0,21.554 L0,27.4455 C0,28.7165 1.0335,29.75 2.304,29.75 L27.6955,29.75 C28.966,29.75 29.9995,28.7165 29.9995,27.446 L29.9995,21.554 C29.9995,20.8195 29.648,20.172 29.111,19.75 C29.6485,19.328 30,18.68 30,17.946 L30,12.054 C30,11.3195 29.6485,10.672 29.1115,10.25 C29.6485,9.828 30,9.18 30,8.446 Z M29,21.554 L29,27.4455 C29,28.1645 28.415,28.7495 27.696,28.7495 L2.304,28.7495 C1.585,28.75 1,28.165 1,27.446 L1,21.554 C1,20.835 1.585,20.25 2.304,20.25 L27.6955,20.25 C28.415,20.25 29,20.835 29,21.554 Z M29,12.054 L29,17.9455 C29,18.6645 28.415,19.2495 27.696,19.2495 L2.304,19.2495 C1.585,19.25 1,18.665 1,17.946 L1,12.054 C1,11.335 1.585,10.75 2.304,10.75 L27.6955,10.75 C28.415,10.75 29,11.335 29,12.054 Z M2.304,9.75 C1.585,9.75 1,9.165 1,8.446 L1,2.554 C1,1.835 1.585,1.25 2.304,1.25 L27.6955,1.25 C28.415,1.25 29,1.835 29,2.554 L29,8.4455 C29,9.1645 28.415,9.7495 27.696,9.7495 L2.304,9.7495 L2.304,9.75 Z" id="Shape"></path>
                                <path d="M5.25,17.25 C6.4905,17.25 7.5,16.2405 7.5,15 C7.5,13.7595 6.4905,12.75 5.25,12.75 C4.0095,12.75 3,13.7595 3,15 C3,16.2405 4.0095,17.25 5.25,17.25 Z M5.25,13.75 C5.939,13.75 6.5,14.3105 6.5,15 C6.5,15.6895 5.939,16.25 5.25,16.25 C4.561,16.25 4,15.6895 4,15 C4,14.3105 4.561,13.75 5.25,13.75 Z" id="Shape"></path>
                                <ellipse id="Oval" cx="25" cy="14.25" rx="0.5" ry="0.5"></ellipse>
                                <ellipse id="Oval" cx="23" cy="14.25" rx="0.5" ry="0.5"></ellipse>
                                <ellipse id="Oval" cx="26" cy="15.75" rx="0.5" ry="0.5"></ellipse>
                                <circle id="Oval" cx="24" cy="15.75" r="0.5"></circle>
                                <ellipse id="Oval" cx="21" cy="14.25" rx="0.5" ry="0.5"></ellipse>
                                <circle id="Oval" cx="22" cy="15.75" r="0.5"></circle>
                                <ellipse id="Oval" cx="19" cy="14.25" rx="0.5" ry="0.5"></ellipse>
                                <circle id="Oval" cx="20" cy="15.75" r="0.5"></circle>
                                <ellipse id="Oval" cx="17" cy="14.25" rx="0.5" ry="0.5"></ellipse>
                                <circle id="Oval" cx="18" cy="15.75" r="0.5"></circle>
                                <path d="M5.25,26.75 C6.4905,26.75 7.5,25.7405 7.5,24.5 C7.5,23.2595 6.4905,22.25 5.25,22.25 C4.0095,22.25 3,23.2595 3,24.5 C3,25.7405 4.0095,26.75 5.25,26.75 Z M5.25,23.25 C5.939,23.25 6.5,23.8105 6.5,24.5 C6.5,25.1895 5.939,25.75 5.25,25.75 C4.561,25.75 4,25.1895 4,24.5 C4,23.8105 4.561,23.25 5.25,23.25 Z" id="Shape"></path>
                                <ellipse id="Oval" cx="25" cy="23.75" rx="0.5" ry="0.5"></ellipse>
                                <ellipse id="Oval" cx="23" cy="23.75" rx="0.5" ry="0.5"></ellipse>
                                <circle id="Oval" cx="26" cy="25.25" r="0.5"></circle>
                                <ellipse id="Oval" cx="24" cy="25.25" rx="0.5" ry="0.5"></ellipse>
                                <ellipse id="Oval" cx="21" cy="23.75" rx="0.5" ry="0.5"></ellipse>
                                <ellipse id="Oval" cx="22" cy="25.25" rx="0.5" ry="0.5"></ellipse>
                                <ellipse id="Oval" cx="19" cy="23.75" rx="0.5" ry="0.5"></ellipse>
                                <ellipse id="Oval" cx="20" cy="25.25" rx="0.5" ry="0.5"></ellipse>
                                <ellipse id="Oval" cx="17" cy="23.75" rx="0.5" ry="0.5"></ellipse>
                                <ellipse id="Oval" cx="18" cy="25.25" rx="0.5" ry="0.5"></ellipse>
                            </g>
                        </g>
                    </g>
                </g>
            </g>
        </g>
    </g>
</svg>