<?xml version="1.0" encoding="UTF-8" standalone="no"?>
<svg width="29px" height="30px" viewBox="0 0 29 30" version="1.1" xmlns="http://www.w3.org/2000/svg" xmlns:xlink="http://www.w3.org/1999/xlink">
    <!-- Generator: Sketch 42 (36781) - http://www.bohemiancoding.com/sketch -->
    <title>controls</title>
    <desc>Created with Sketch.</desc>
    <defs></defs>
    <g id="Component" stroke="none" stroke-width="1" fill="none" fill-rule="evenodd">
        <g id="onboarding-step" transform="translate(-684.000000, -15.000000)" fill-rule="nonzero" fill="#000000">
            <g id="step" transform="translate(102.000000, 15.000000)">
                <g id="4" transform="translate(582.000000, 0.000000)">
                    <g id="controls">
                        <g id="Capa_1">
                            <g id="Group">
                                <path d="M3.75,7.5 C5.63517857,7.5 7.19571429,6.09964286 7.45714286,4.28571429 L28.3928571,4.28571429 C28.6891071,4.28571429 28.9285714,4.04625 28.9285714,3.75 C28.9285714,3.45375 28.6891071,3.21428571 28.3928571,3.21428571 L7.45714286,3.21428571 C7.19571429,1.40035714 5.63517857,0 3.75,0 C1.68214286,0 0,1.68267857 0,3.75 C0,5.81732143 1.68214286,7.5 3.75,7.5 Z M3.75,1.07142857 C5.22696429,1.07142857 6.42857143,2.27303571 6.42857143,3.75 C6.42857143,5.22696429 5.22696429,6.42857143 3.75,6.42857143 C2.27303571,6.42857143 1.07142857,5.22696429 1.07142857,3.75 C1.07142857,2.27303571 2.27303571,1.07142857 3.75,1.07142857 Z" id="Shape"></path>
                                <path d="M25.1785714,22.5 C23.2933929,22.5 21.7328571,23.9003571 21.4714286,25.7142857 L0.535714286,25.7142857 C0.24,25.7142857 0,25.95375 0,26.25 C0,26.54625 0.24,26.7857143 0.535714286,26.7857143 L21.4714286,26.7857143 C21.7328571,28.5996429 23.2933929,30 25.1785714,30 C27.2458929,30 28.9285714,28.3173214 28.9285714,26.25 C28.9285714,24.1826786 27.2458929,22.5 25.1785714,22.5 Z M25.1785714,28.9285714 C23.7016071,28.9285714 22.5,27.7269643 22.5,26.25 C22.5,24.7730357 23.7016071,23.5714286 25.1785714,23.5714286 C26.6555357,23.5714286 27.8571429,24.7730357 27.8571429,26.25 C27.8571429,27.7269643 26.6555357,28.9285714 25.1785714,28.9285714 Z" id="Shape"></path>
                                <path d="M28.3928571,14.4642857 L18.4114286,14.4642857 C18.1992857,12.5346429 16.5605357,11.0282143 14.5751786,11.0282143 C12.5898214,11.0282143 10.9510714,12.5351786 10.7389286,14.4642857 L0.535714286,14.4642857 C0.24,14.4642857 0,14.70375 0,15 C0,15.29625 0.24,15.5357143 0.535714286,15.5357143 L10.7726786,15.5357143 C11.0817857,17.3571429 12.6669643,18.75 14.5751786,18.75 C16.4833929,18.75 18.0680357,17.3571429 18.3771429,15.5357143 L28.3928571,15.5357143 C28.6891071,15.5357143 28.9285714,15.29625 28.9285714,15 C28.9285714,14.70375 28.6891071,14.4642857 28.3928571,14.4642857 Z M14.5751786,17.6785714 C13.0371429,17.6785714 11.7857143,16.4271429 11.7857143,14.8891071 C11.7857143,13.3510714 13.0371429,12.0996429 14.5751786,12.0996429 C16.1132143,12.0996429 17.3646429,13.3510714 17.3646429,14.8891071 C17.3646429,16.4271429 16.1132143,17.6785714 14.5751786,17.6785714 Z" id="Shape"></path>
                            </g>
                        </g>
                    </g>
                </g>
            </g>
        </g>
    </g>
</svg>