<?xml version="1.0" encoding="UTF-8" standalone="no"?>
<svg width="24px" height="30px" viewBox="0 0 24 30" version="1.1" xmlns="http://www.w3.org/2000/svg" xmlns:xlink="http://www.w3.org/1999/xlink">
    <!-- Generator: Sketch 42 (36781) - http://www.bohemiancoding.com/sketch -->
    <title>file</title>
    <desc>Created with Sketch.</desc>
    <defs></defs>
    <g id="Component" stroke="none" stroke-width="1" fill="none" fill-rule="evenodd">
        <g id="onboarding-step" transform="translate(-102.000000, -15.000000)" fill-rule="nonzero" fill="#000000">
            <g id="step" transform="translate(102.000000, 15.000000)">
                <g id="1">
                    <g id="file">
                        <g id="Capa_1">
                            <g id="Group">
                                <path d="M18.25,11 L5.75,11 C5.474,11 5.25,11.2235 5.25,11.5 C5.25,11.7765 5.474,12 5.75,12 L18.25,12 C18.526,12 18.75,11.7765 18.75,11.5 C18.75,11.2235 18.526,11 18.25,11 Z" id="Shape"></path>
                                <path d="M5.75,8 L10.75,8 C11.026,8 11.25,7.7765 11.25,7.5 C11.25,7.2235 11.026,7 10.75,7 L5.75,7 C5.474,7 5.25,7.2235 5.25,7.5 C5.25,7.7765 5.474,8 5.75,8 Z" id="Shape"></path>
                                <path d="M18.25,15 L5.75,15 C5.474,15 5.25,15.2235 5.25,15.5 C5.25,15.7765 5.474,16 5.75,16 L18.25,16 C18.526,16 18.75,15.7765 18.75,15.5 C18.75,15.2235 18.526,15 18.25,15 Z" id="Shape"></path>
                                <path d="M18.25,19 L5.75,19 C5.474,19 5.25,19.2235 5.25,19.5 C5.25,19.7765 5.474,20 5.75,20 L18.25,20 C18.526,20 18.75,19.7765 18.75,19.5 C18.75,19.2235 18.526,19 18.25,19 Z" id="Shape"></path>
                                <path d="M18.25,23 L5.75,23 C5.474,23 5.25,23.2235 5.25,23.5 C5.25,23.7765 5.474,24 5.75,24 L18.25,24 C18.526,24 18.75,23.7765 18.75,23.5 C18.75,23.2235 18.526,23 18.25,23 Z" id="Shape"></path>
                                <path d="M16.457,0 L0.25,0 L0.25,30 L23.75,30 L23.75,7.293 L16.457,0 Z M16.75,1.707 L22.043,7 L16.75,7 L16.75,1.707 Z M1.25,29 L1.25,1 L15.75,1 L15.75,8 L22.75,8 L22.75,29 L1.25,29 Z" id="Shape"></path>
                            </g>
                        </g>
                    </g>
                </g>
            </g>
        </g>
    </g>
</svg>