<?xml version="1.0" encoding="UTF-8" standalone="no"?>
<svg width="150px" height="30px" viewBox="0 0 150 30" version="1.1" xmlns="http://www.w3.org/2000/svg" xmlns:xlink="http://www.w3.org/1999/xlink">
    <!-- Generator: Sketch 42 (36781) - http://www.bohemiancoding.com/sketch -->
    <title>logo</title>
    <desc>Created with Sketch.</desc>
    <defs>
        <polygon id="path-1" points="0 30.125254 147.127047 30.125254 147.127047 0 0 0"></polygon>
    </defs>
    <g id="Symbols" stroke="none" stroke-width="1" fill="none" fill-rule="evenodd">
        <g id="Logo">
            <g id="logo">
                <path d="M37.6316778,20.2540932 C37.6316778,20.2540932 41.3688031,15.5533398 35.8877805,9.42775326 C35.8877805,9.42775326 32.7827061,6.10924356 27.5272768,6.91808957 C27.5272768,6.91808957 25.089328,-1.26617483 15.9617007,0.168837088 C15.9617007,0.168837088 10.2211616,0.90161103 8.50445594,7.59916665 C8.50445594,7.59916665 -0.3424861,6.56478306 0.0102968297,15.0563714 C0.0102968297,15.0563714 -0.217599349,18.8162241 4.36733873,18.4294352 C4.51268565,18.4172029 4.64926393,18.3667561 4.7906251,18.3322915 C6.00220373,18.0359498 10.1312609,16.3377214 12.1394576,15.3686955 C12.1394576,15.3686955 12.7446712,15.0056567 14.1109854,16.505937 C14.1109854,16.505937 15.1556055,17.7524653 17.350158,18.415685 C17.350158,18.415685 18.9029166,18.9625646 18.4380899,24.8084167 C18.4380899,24.8084167 18.0842441,25.8001214 19.2536623,26.1265527 C19.2536623,26.1265527 22.5222409,27.6168329 24.1996206,29.537831 C24.1996206,29.537831 24.5490378,30.1114072 27.06183,29.9806025 C27.06183,29.9806025 25.6711585,27.6323687 24.8958863,27.5120106 C24.8958863,27.5120106 22.2250813,26.4904842 20.9542479,25.1085978 C20.9542479,25.1085978 20.0666662,22.6020591 20.2785309,20.9954386 L20.6162565,18.5902401 C20.6162565,18.5902401 20.9148333,17.7496974 21.6689367,17.7709475 C21.6689367,17.7709475 22.7612086,17.5612137 23.302296,18.31997 C23.302296,18.31997 23.2084095,18.6003294 22.8287892,19.5828376 C22.8287892,19.5828376 22.5238352,21.3095484 21.8432467,20.9315988 C21.8432467,20.9315988 21.3336911,20.7481151 21.3174823,21.388299 C21.3174823,21.388299 21.0438829,21.8083025 21.7079084,22.0264293 C21.7079084,22.0264293 22.7298541,22.2566098 23.1788264,21.3791025 C23.1788264,21.3791025 24.4980202,19.3453356 26.2352746,19.0593511 C26.2352746,19.0593511 28.1881137,18.9150642 29.6786946,17.1979964 C29.6786946,17.1979964 30.8125955,15.7636987 33.1247718,15.935218 C33.1247718,15.935218 33.4784405,15.944236 34.0494652,16.0738799 C34.0494652,16.0738799 35.0668937,16.3872753 35.5447405,15.8670925 C35.5447405,15.8670925 36.3088526,15.1132469 35.5648464,14.7943157 C35.5648464,14.7943157 31.7324174,12.8779605 31.3122311,12.4513498 C31.3122311,12.4513498 30.5612277,11.8762557 30.3337744,11.6190215 C30.3337744,11.6190215 29.8958736,11.1276781 29.0804782,10.9282122 L28.43461,10.810979 C28.43461,10.810979 28.1311618,10.7448178 28.2323998,11.1055351 C28.2323998,11.1055351 28.3981183,12.4731357 29.8299759,12.9007285 C29.8299759,12.9007285 30.5912536,13.019926 30.2062304,13.4012684 C30.2062304,13.4012684 29.3542548,14.4846703 27.5155852,14.0815419 C27.5155852,14.0815419 26.3408526,13.8631472 25.8085339,12.6645659 C25.8085339,12.6645659 25.1579714,11.1192852 23.5570295,9.98543647 C23.5570295,9.98543647 21.4707122,8.36801232 18.6126656,8.41238769 C18.6126656,8.41238769 17.0258953,8.47488821 15.7316788,9.53471844 L12.3366192,12.1019719 L9.53136161,14.2364539 C9.53136161,14.2364539 7.01529215,16.2852209 5.73445008,16.7099566 C5.73445008,16.7099566 3.89666625,17.6054105 2.36489924,16.8783509 C2.36489924,16.8783509 0.685128148,16.3146855 0.928524455,14.5495815 C0.928524455,14.5495815 0.8513781,12.8417102 2.17872055,11.5170563 C2.17872055,11.5170563 3.84316866,9.55061143 6.9871262,9.30909156 C6.9871262,9.30909156 8.24919096,9.13239367 10.8348782,9.5804331 C10.8348782,9.5804331 11.5979273,9.88177489 11.4538204,9.14319733 C11.4538204,9.14319733 11.4869464,7.1755917 13.0893054,5.38039822 C13.0893054,5.38039822 15.1615398,2.83153777 18.6357829,2.88430607 C18.6357829,2.88430607 24.1563973,2.85698441 26.249269,8.00327715 C26.249269,8.00327715 26.6367722,9.40694952 26.626675,9.74373803 C26.626675,9.74373803 26.6462495,9.84141741 26.9533291,9.74266659 C26.9533291,9.74266659 32.4705778,7.86327599 36.2071717,11.9813459 C36.2071717,11.9813459 39.6799091,14.9190489 37.6316778,20.2540932" fill="#FEFEFE"></path>
                <g id="text" transform="translate(2.000000, 0.000000)">
                    <path d="M49.0711301,16.6620502 L47.2664916,11.9761865 C47.1207831,11.6138733 46.971907,11.1535625 46.8197754,10.5950747 C46.7525524,10.8735565 46.6797861,11.131327 46.6012126,11.365517 C46.5219352,11.5997071 46.449081,11.8069097 46.381946,11.9847938 L44.5772195,16.6620502 L49.0711301,16.6620502 Z M53.1093497,21.4737059 L51.4592185,21.4737059 C51.2715396,21.4737059 51.119408,21.4277107 51.0036155,21.335272 C50.8887908,21.2435505 50.8005387,21.1295935 50.7398268,20.9920562 L49.6457812,18.1593604 L43.9936816,18.1593604 L42.9004279,20.9920562 C42.8510665,21.1113927 42.7660698,21.2214047 42.6447341,21.3225403 C42.5233103,21.4238553 42.3711787,21.4737059 42.189131,21.4737059 L40.5389999,21.4737059 L45.7442073,8.64364017 L47.9050221,8.64364017 L53.1093497,21.4737059 Z" id="Fill-4" fill="#FEFEFE"></path>
                    <path d="M59.508223,19.7896264 C60.0123955,19.7896264 60.4639511,19.7065123 60.8621858,19.5396563 C61.2603325,19.3735176 61.5969755,19.1426449 61.8737864,18.8452451 C62.1505094,18.5477555 62.3617691,18.1902839 62.5073896,17.771844 C62.6530102,17.3534041 62.7258644,16.8883413 62.7258644,16.3771937 L62.7258644,8.64372086 L64.8502521,8.64372086 L64.8502521,16.3771937 C64.8502521,17.1318559 64.7272446,17.8295846 64.4812295,18.4710968 C64.2344225,19.1126091 63.8807099,19.6661656 63.4186837,20.1329319 C62.9573614,20.5996085 62.3966125,20.9643425 61.7370527,21.2285684 C61.077493,21.4935117 60.3345204,21.6247729 59.508223,21.6247729 C58.6820136,21.6247729 57.939129,21.4935117 57.2795692,21.2285684 C56.6200095,20.9643425 56.0591725,20.5996085 55.5979383,20.1329319 C55.1358241,19.6661656 54.7821114,19.1126091 54.5360964,18.4710968 C54.2893774,17.8295846 54.1662819,17.1318559 54.1662819,16.3771937 L54.1662819,8.64372086 L56.2995564,8.64372086 L56.2995564,16.3678691 C56.2995564,16.8787478 56.3723226,17.3439898 56.518823,17.7630574 C56.6645315,18.1814973 56.8741195,18.5414794 57.1476749,18.8404035 C57.4212303,19.1410311 57.7562014,19.3735176 58.1543482,19.5396563 C58.5524949,19.7065123 59.0041384,19.7896264 59.508223,19.7896264" id="Fill-6" fill="#FEFEFE"></path>
                    <path d="M74.6771643,10.8355589 C74.6100293,10.9422534 74.5404306,11.0206157 74.4675763,11.0711835 C74.3947221,11.121841 74.3033023,11.1472146 74.1941089,11.1472146 C74.0783164,11.1472146 73.9496776,11.0997848 73.8064328,11.0048356 C73.6640679,10.9098864 73.4875635,10.8038195 73.2779755,10.688428 C73.0683876,10.5729468 72.8207887,10.4653556 72.5350909,10.367358 C72.2493932,10.2692708 71.9087028,10.2201375 71.5137236,10.2201375 C71.1496283,10.2201375 70.8291752,10.2652361 70.5523643,10.3546264 C70.2756413,10.4432098 70.0432644,10.5681949 69.8547936,10.7279677 C69.6662348,10.8893545 69.5253657,11.0775493 69.4314823,11.2943455 C69.3368949,11.511052 69.2898212,11.7467663 69.2898212,12.0030126 C69.2898212,12.3290137 69.3781614,12.60104 69.5545778,12.8178362 C69.7302023,13.0344531 69.9631951,13.2204065 70.2513565,13.3747101 C70.5402219,13.529731 70.8696498,13.6641303 71.2402562,13.7797011 C71.6108626,13.8958996 71.9896519,14.0193604 72.3757443,14.1498147 C72.7616606,14.2811656 73.13957,14.4290137 73.5102644,14.5951524 C73.8808708,14.762098 74.2110027,14.9724387 74.4992521,15.2280574 C74.7881174,15.4834071 75.0203184,15.7950628 75.1967347,16.1636521 C75.3732391,16.5323311 75.4614033,16.98 75.4614033,17.5083622 C75.4614033,18.0794919 75.3610088,18.61422 75.1603076,19.112636 C74.9596065,19.6116796 74.6690694,20.0467962 74.2895761,20.4177167 C73.9099949,20.7895338 73.4423375,21.0821817 72.8863399,21.2957501 C72.3295504,21.5092289 71.6966511,21.6161028 70.9853543,21.6161028 C70.5661784,21.6161028 70.1573851,21.5757561 69.7592384,21.49578 C69.3611797,21.4158936 68.9815985,21.3029229 68.6197909,21.1573162 C68.2580713,21.0117992 67.9189647,20.8353497 67.6033509,20.6273401 C67.2878251,20.4192409 67.004503,20.1883682 66.7561123,19.9321219 L67.3751974,18.9345726 C67.4301901,18.8515481 67.4997888,18.7858279 67.5855773,18.7383981 C67.6705739,18.6909683 67.7644573,18.6672086 67.8680195,18.6672086 C68.0072169,18.6672086 68.1626041,18.7312253 68.3325973,18.8587209 C68.5025026,18.9860371 68.7080431,19.1259952 68.9484269,19.2770711 C69.1879308,19.428954 69.478556,19.5681949 69.8183665,19.6964077 C70.1590569,19.8244411 70.5661784,19.8877406 71.040347,19.8877406 C71.8116517,19.8877406 72.4088278,19.704208 72.8312593,19.335529 C73.2536908,18.9670293 73.4649505,18.459199 73.4649505,17.8121279 C73.4649505,17.4499044 73.3766983,17.1540287 73.2002819,16.9246802 C73.0238655,16.6968559 72.7915766,16.5054334 72.5027113,16.3503228 C72.2145498,16.1961984 71.884418,16.0656545 71.5137236,15.9579737 C71.1431172,15.8520861 70.7668796,15.7374118 70.3839548,15.6155649 C70.001206,15.4938075 69.6241765,15.3514286 69.2534821,15.187621 C68.8827877,15.0247101 68.5527439,14.811052 68.2645824,14.5461984 C67.9756291,14.2819725 67.7433402,13.955254 67.5669238,13.566043 C67.3905074,13.1769217 67.3023432,12.6912373 67.3023432,12.1090795 C67.3023432,11.6463479 67.3954347,11.1978721 67.5807379,10.7643694 C67.7661291,10.3309564 68.036341,9.94640765 68.3916374,9.61027496 C68.7476378,9.27485953 69.1862591,9.00597131 69.7090851,8.8042379 C70.2319111,8.60178721 70.8275034,8.50056186 71.49595,8.50056186 C72.2493932,8.50056186 72.9405407,8.61676031 73.5693045,8.84852959 C74.1989483,9.08029886 74.7412197,9.41015541 75.1967347,9.83729229 L74.6771643,10.8355589 Z" id="Fill-8" fill="#FEFEFE"></path>
                    <path d="M88.623298,8.64367603 L88.623298,21.4737418 L87.5380512,21.4737418 C87.3747451,21.4737418 87.2346678,21.4459474 87.1188753,21.3890137 C87.0040507,21.3321698 86.8939774,21.2388344 86.7912072,21.1082008 L79.5806601,12.0560191 C79.5984337,12.228434 79.6121599,12.3986073 79.6218386,12.567884 C79.6308134,12.7371608 79.6356527,12.8937059 79.6356527,13.0360849 L79.6356527,21.4737418 L77.7572801,21.4737418 L77.7572801,8.64367603 L78.8692753,8.64367603 C78.960783,8.64367603 79.0383007,8.64762104 79.1023561,8.65712493 C79.1653557,8.66591154 79.2252756,8.68249851 79.2795644,8.70616856 C79.334557,8.72992827 79.3863821,8.76552301 79.4348636,8.81295278 C79.4834331,8.86038255 79.5352582,8.919737 79.5894589,8.99101614 L86.8089808,18.0526121 C86.7912072,17.8682726 86.777393,17.6871608 86.7685062,17.5083802 C86.7588275,17.3304961 86.75478,17.1643574 86.75478,17.0100538 L86.75478,8.64367603 L88.623298,8.64367603 Z" id="Fill-10" fill="#FEFEFE"></path>
                    <mask id="mask-2" fill="white">
                        <use xlink:href="#path-1"></use>
                    </mask>
                    <g id="Clip-13"></g>
                    <polygon id="Fill-12" fill="#FEFEFE" mask="url(#mask-2)" points="91.749546 21.4736701 93.8917074 21.4736701 93.8917074 8.6436043 91.749546 8.6436043"></polygon>
                    <path d="M110.974551,8.64367603 L110.974551,21.4737418 L109.096266,21.4737418 L109.096266,12.6801375 C109.096266,12.5370412 109.101106,12.3812134 109.11008,12.211847 C109.118879,12.0425702 109.132605,11.8717693 109.151259,11.6993545 L104.930904,19.3174357 C104.76663,19.6323192 104.514191,19.7895816 104.174293,19.7895816 L103.873285,19.7895816 C103.526876,19.7895816 103.274349,19.6323192 103.116587,19.3174357 L98.8323518,11.6818709 C98.8500375,11.8543754 98.8637636,12.0267902 98.8736183,12.1983981 C98.8824171,12.3708129 98.8873445,12.5314824 98.8873445,12.6801375 L98.8873445,21.4737418 L97.0089718,21.4737418 L97.0089718,8.64367603 L98.6041104,8.64367603 C98.7926691,8.64367603 98.9382896,8.66035266 99.0419398,8.69271967 C99.1455019,8.72517633 99.2393854,8.82487747 99.324294,8.99101614 L103.535762,16.4485176 C103.627182,16.6209325 103.713763,16.7980096 103.795504,16.9784041 C103.878125,17.1603228 103.951771,17.3454692 104.018818,17.5352779 C104.091672,17.3454692 104.169454,17.1571847 104.251195,16.9697071 C104.33364,16.7822295 104.420308,16.6034489 104.510936,16.4310341 L108.659229,8.99101614 C108.744225,8.82487747 108.838109,8.72517633 108.941671,8.69271967 C109.044441,8.66035266 109.190942,8.64367603 109.378621,8.64367603 L110.974551,8.64367603 Z" id="Fill-14" fill="#FEFEFE" mask="url(#mask-2)"></path>
                    <path d="M118.86823,19.825257 C119.348909,19.825257 119.754271,19.7707442 120.085283,19.6607322 C120.416295,19.5507203 120.687474,19.4004513 120.897062,19.2106426 C121.106562,19.0208338 121.25799,18.796058 121.352577,18.5382875 C121.446549,18.2796204 121.494238,18.0020353 121.494238,17.7046354 C121.494238,17.0986282 121.282979,16.6224477 120.860635,16.2743903 C120.438204,15.9271399 119.771341,15.7540078 118.859167,15.7540078 L116.225064,15.7540078 L116.225064,19.825257 L118.86823,19.825257 Z M116.225064,10.273942 L116.225064,14.2835057 L118.358338,14.2835057 C119.269632,14.2835057 119.950133,14.1110012 120.400105,13.7669785 C120.849285,13.4221488 121.074271,12.9261536 121.074271,12.2783652 C121.074271,11.5720293 120.863011,11.0617782 120.441371,10.7460879 C120.01894,10.4313837 119.357708,10.273942 118.458645,10.273942 L116.225064,10.273942 Z M118.458645,8.64366707 C119.297084,8.64366707 120.0141,8.72202929 120.609693,8.88018828 C121.205373,9.03682307 121.69406,9.26141961 122.076984,9.55254334 C122.459733,9.84366707 122.741384,10.1980006 122.920176,10.6172475 C123.099848,11.0356874 123.189596,11.506309 123.189596,12.0291124 C123.189596,12.3321608 123.141906,12.6248087 123.048022,12.9063389 C122.954139,13.1895726 122.807639,13.4537986 122.610193,13.699734 C122.412747,13.946566 122.165149,14.1672176 121.867308,14.3633921 C121.569556,14.5596563 121.217427,14.7232845 120.810394,14.8537388 C122.670201,15.2398117 123.599181,16.2048147 123.599181,17.7489271 C123.599181,18.2962074 123.494739,18.796058 123.285151,19.2501823 C123.075475,19.7050239 122.771212,20.0964764 122.373153,20.4272295 C121.975798,20.7561895 121.48456,21.0133323 120.90111,21.1976718 C120.31766,21.3811148 119.652381,21.4737328 118.905449,21.4737328 L114.091877,21.4737328 L114.091877,8.64366707 L118.458645,8.64366707 Z" id="Fill-15" fill="#FEFEFE" mask="url(#mask-2)"></path>
                    <path d="M131.174721,19.7896264 C131.678893,19.7896264 132.130449,19.7065123 132.528683,19.5396563 C132.926742,19.3735176 133.263473,19.1426449 133.540284,18.8452451 C133.816919,18.5477555 134.028267,18.1902839 134.173887,17.771844 C134.319508,17.3534041 134.392362,16.8883413 134.392362,16.3771937 L134.392362,8.64372086 L136.51675,8.64372086 L136.51675,16.3771937 C136.51675,17.1318559 136.393654,17.8295846 136.147727,18.4710968 C135.90092,19.1126091 135.547119,19.6661656 135.085093,20.1329319 C134.623859,20.5996085 134.063022,20.9643425 133.403462,21.2285684 C132.743903,21.4935117 132.001018,21.6247729 131.174721,21.6247729 C130.348423,21.6247729 129.605539,21.4935117 128.945979,21.2285684 C128.286507,20.9643425 127.72567,20.5996085 127.264348,20.1329319 C126.802322,19.6661656 126.448521,19.1126091 126.202594,18.4710968 C125.955787,17.8295846 125.832779,17.1318559 125.832779,16.3771937 L125.832779,8.64372086 L127.965966,8.64372086 L127.965966,16.3678691 C127.965966,16.8787478 128.03882,17.3439898 128.185233,17.7630574 C128.330941,18.1814973 128.540617,18.5414794 128.814084,18.8404035 C129.08764,19.1410311 129.422611,19.3735176 129.820846,19.5396563 C130.21908,19.7065123 130.670636,19.7896264 131.174721,19.7896264" id="Fill-16" fill="#FEFEFE" mask="url(#mask-2)"></path>
                    <path d="M146.342896,10.8355589 C146.275673,10.9422534 146.206075,11.0206157 146.133308,11.0711835 C146.060454,11.121841 145.968946,11.1472146 145.859753,11.1472146 C145.74396,11.1472146 145.615322,11.0997848 145.472165,11.0048356 C145.329624,10.9098864 145.153208,10.8038195 144.943708,10.688428 C144.73412,10.5729468 144.486345,10.4653556 144.200647,10.367358 C143.915037,10.2692708 143.574347,10.2201375 143.179456,10.2201375 C142.815184,10.2201375 142.494819,10.2652361 142.21792,10.3546264 C141.941285,10.4432098 141.708996,10.5681949 141.52035,10.7279677 C141.331879,10.8893545 141.191098,11.0775493 141.097214,11.2943455 C141.002539,11.511052 140.955553,11.7467663 140.955553,12.0030126 C140.955553,12.3290137 141.043805,12.60104 141.220134,12.8178362 C141.395846,13.0344531 141.628927,13.2204065 141.917001,13.3747101 C142.205866,13.529731 142.535294,13.6641303 142.905812,13.7797011 C143.276507,13.8958996 143.655296,14.0193604 144.0413,14.1498147 C144.427305,14.2811656 144.805214,14.4290137 145.175909,14.5951524 C145.546515,14.762098 145.876735,14.9724387 146.164808,15.2280574 C146.453762,15.4834071 146.685962,15.7950628 146.862379,16.1636521 C147.038795,16.5323311 147.127047,16.98 147.127047,17.5083622 C147.127047,18.0794919 147.026741,18.61422 146.825952,19.112636 C146.625339,19.6116796 146.334713,20.0467962 145.95522,20.4177167 C145.575639,20.7895338 145.107894,21.0821817 144.551984,21.2957501 C143.995195,21.5092289 143.362295,21.6161028 142.650998,21.6161028 C142.231735,21.6161028 141.823117,21.5757561 141.424882,21.49578 C141.026736,21.4158936 140.647243,21.3029229 140.285435,21.1573162 C139.923715,21.0117992 139.584609,20.8353497 139.268995,20.6273401 C138.953469,20.4192409 138.670235,20.1883682 138.421756,19.9321219 L139.04093,18.9345726 C139.095922,18.8515481 139.165433,18.7858279 139.251221,18.7383981 C139.336218,18.6909683 139.430189,18.6672086 139.533664,18.6672086 C139.672861,18.6672086 139.828248,18.7312253 139.998241,18.8587209 C140.168147,18.9860371 140.373687,19.1259952 140.614071,19.2770711 C140.853575,19.428954 141.144112,19.5681949 141.484011,19.6964077 C141.824613,19.8244411 142.231735,19.8877406 142.705991,19.8877406 C143.477296,19.8877406 144.074472,19.704208 144.496903,19.335529 C144.919335,18.9670293 145.130595,18.459199 145.130595,17.8121279 C145.130595,17.4499044 145.042342,17.1540287 144.866014,16.9246802 C144.689598,16.6968559 144.457309,16.5054334 144.168355,16.3503228 C143.880282,16.1961984 143.55015,16.0656545 143.179456,15.9579737 C142.808761,15.8520861 142.432524,15.7374118 142.049687,15.6155649 C141.66685,15.4938075 141.289733,15.3514286 140.919126,15.187621 C140.54852,15.0247101 140.218388,14.811052 139.930226,14.5461984 C139.641361,14.2819725 139.409072,13.955254 139.232568,13.566043 C139.056239,13.1769217 138.968075,12.6912373 138.968075,12.1090795 C138.968075,11.6463479 139.061079,11.1978721 139.246382,10.7643694 C139.431685,10.3309564 139.701985,9.94640765 140.057194,9.61027496 C140.413282,9.27485953 140.851991,9.00597131 141.374817,8.8042379 C141.897555,8.60178721 142.493148,8.50056186 143.161594,8.50056186 C143.915037,8.50056186 144.606185,8.61676031 145.234949,8.84852959 C145.864504,9.08029886 146.406864,9.41015541 146.862379,9.83729229 L146.342896,10.8355589 Z" id="Fill-17" fill="#FEFEFE" mask="url(#mask-2)"></path>
                </g>
            </g>
        </g>
    </g>
</svg>